<svg width="30" height="30" viewBox="0 0 30 30" fill="none" xmlns="http://www.w3.org/2000/svg">
<path d="M17.8125 20.5125L17.8125 10.0406C17.8136 9.8544 17.7592 9.67208 17.6562 9.51691C17.5533 9.36173 17.4065 9.24073 17.2345 9.16932C17.0625 9.09792 16.8732 9.07934 16.6906 9.11597C16.508 9.1526 16.3405 9.24277 16.2094 9.37498L10.9781 14.6156C10.8035 14.7913 10.7055 15.0289 10.7055 15.2765C10.7055 15.5242 10.8035 15.7618 10.9781 15.9375L16.2094 21.1781C16.3405 21.3103 16.508 21.4005 16.6906 21.4371C16.8732 21.4737 17.0625 21.4552 17.2345 21.3838C17.4065 21.3123 17.5533 21.1913 17.6562 21.0362C17.7592 20.881 17.8136 20.6987 17.8125 20.5125Z" fill="#444444"/>
</svg>
