<svg width="16" height="17" viewBox="0 0 16 17" fill="none" xmlns="http://www.w3.org/2000/svg">
<g clip-path="url(#clip0_337_1953)">
<path d="M11.6667 1.778C10.916 1.78968 10.1817 1.99924 9.53789 2.38551C8.89409 2.77179 8.36362 3.32111 8.00005 3.978C7.63648 3.32111 7.10601 2.77179 6.46221 2.38551C5.81841 1.99924 5.08409 1.78968 4.33339 1.778C3.13668 1.82999 2.00919 2.3535 1.19724 3.23415C0.385293 4.11481 -0.0451134 5.28102 5.3573e-05 6.478C5.3573e-05 9.50933 3.19072 12.82 5.86672 15.0647C6.4642 15.5668 7.21962 15.842 8.00005 15.842C8.78048 15.842 9.5359 15.5668 10.1334 15.0647C12.8094 12.82 16 9.50933 16 6.478C16.0452 5.28102 15.6148 4.11481 14.8029 3.23415C13.9909 2.3535 12.8634 1.82999 11.6667 1.778ZM9.27672 14.0447C8.91937 14.3456 8.46722 14.5106 8.00005 14.5106C7.53288 14.5106 7.08073 14.3456 6.72338 14.0447C3.29805 11.1707 1.33339 8.41333 1.33339 6.478C1.28781 5.63448 1.57763 4.80715 2.13963 4.17647C2.70163 3.54578 3.49021 3.1629 4.33339 3.11133C5.17656 3.1629 5.96514 3.54578 6.52714 4.17647C7.08914 4.80715 7.37896 5.63448 7.33338 6.478C7.33338 6.65481 7.40362 6.82438 7.52865 6.9494C7.65367 7.07443 7.82324 7.14467 8.00005 7.14467C8.17686 7.14467 8.34643 7.07443 8.47146 6.9494C8.59648 6.82438 8.66672 6.65481 8.66672 6.478C8.62114 5.63448 8.91096 4.80715 9.47296 4.17647C10.035 3.54578 10.8235 3.1629 11.6667 3.11133C12.5099 3.1629 13.2985 3.54578 13.8605 4.17647C14.4225 4.80715 14.7123 5.63448 14.6667 6.478C14.6667 8.41333 12.702 11.1707 9.27672 14.042V14.0447Z" fill="white"/>
</g>
<defs>
<clipPath id="clip0_337_1953">
<rect width="16" height="16" fill="white" transform="translate(0 0.5)"/>
</clipPath>
</defs>
</svg>
