<svg width="32" height="32" viewBox="0 0 32 32" fill="" xmlns="http://www.w3.org/2000/svg">
    <g clip-path="url(#clip0_58_83)" fill="">
        <path fill="" d="M26.4225 25.2442L21.4483 20.27C22.8038 18.6122 23.4703 16.4967 23.3099 14.3613C23.1494 12.2259 22.1743 10.2338 20.5863 8.79709C18.9983 7.36042 16.9188 6.58907 14.778 6.64259C12.6372 6.69612 10.5989 7.57043 9.08467 9.08467C7.57043 10.5989 6.69612 12.6372 6.64259 14.778C6.58907 16.9188 7.36042 18.9983 8.79709 20.5863C10.2338 22.1743 12.2259 23.1494 14.3613 23.3099C16.4967 23.4703 18.6122 22.8038 20.27 21.4483L25.2442 26.4225C25.4013 26.5743 25.6118 26.6583 25.8303 26.6564C26.0488 26.6545 26.2578 26.5668 26.4123 26.4123C26.5668 26.2578 26.6545 26.0488 26.6564 25.8303C26.6583 25.6118 26.5743 25.4013 26.4225 25.2442ZM15 21.6667C13.6814 21.6667 12.3925 21.2757 11.2962 20.5431C10.1999 19.8106 9.34538 18.7694 8.84079 17.5512C8.33621 16.333 8.20419 14.9926 8.46142 13.6994C8.71866 12.4062 9.3536 11.2183 10.2859 10.2859C11.2183 9.3536 12.4062 8.71866 13.6994 8.46142C14.9926 8.20419 16.333 8.33621 17.5512 8.84079C18.7694 9.34538 19.8106 10.1999 20.5431 11.2962C21.2757 12.3925 21.6667 13.6814 21.6667 15C21.6647 16.7675 20.9617 18.462 19.7118 19.7118C18.462 20.9617 16.7675 21.6647 15 21.6667Z" />
    </g>
    <defs>
        <clipPath id="clip0_58_83" fill="">
            <rect fill="" width="20" height="20" transform="translate(6.66666 6.66666)" />
        </clipPath>
    </defs>
</svg>