<svg width="32" height="32" viewBox="0 0 32 32" fill="none" xmlns="http://www.w3.org/2000/svg">
    <g clip-path="url(#clip0_58_87)">
        <path d="M19.5556 5.33334H19.44C19.0422 5.33712 18.6569 5.47291 18.3446 5.71939C18.0323 5.96586 17.8108 6.30907 17.7147 6.69512C17.6118 7.07098 17.3882 7.40261 17.0784 7.63899C16.7686 7.87538 16.3897 8.00342 16 8.00342C15.6103 8.00342 15.2314 7.87538 14.9216 7.63899C14.6118 7.40261 14.3882 7.07098 14.2853 6.69512C14.1892 6.30907 13.9677 5.96586 13.6554 5.71939C13.3431 5.47291 12.9578 5.33712 12.56 5.33334H12.4444C11.2661 5.33475 10.1365 5.80346 9.30331 6.63665C8.47012 7.46984 8.00141 8.59948 8 9.77779V24C8 24.7072 8.28095 25.3855 8.78105 25.8856C9.28115 26.3857 9.95942 26.6667 10.6667 26.6667H12.56C12.9578 26.6629 13.3431 26.5271 13.6554 26.2806C13.9677 26.0341 14.1892 25.6909 14.2853 25.3049C14.3882 24.929 14.6118 24.5974 14.9216 24.361C15.2314 24.1246 15.6103 23.9966 16 23.9966C16.3897 23.9966 16.7686 24.1246 17.0784 24.361C17.3882 24.5974 17.6118 24.929 17.7147 25.3049C17.8108 25.6909 18.0323 26.0341 18.3446 26.2806C18.6569 26.5271 19.0422 26.6629 19.44 26.6667H21.3333C22.0406 26.6667 22.7189 26.3857 23.2189 25.8856C23.719 25.3855 24 24.7072 24 24V9.77779C23.9986 8.59948 23.5299 7.46984 22.6967 6.63665C21.8635 5.80346 20.7339 5.33475 19.5556 5.33334V5.33334ZM21.3333 24.8889L19.4284 24.8329C19.2197 24.0786 18.7678 23.4143 18.143 22.9429C17.5182 22.4716 16.7554 22.2195 15.9727 22.2259C15.1901 22.2323 14.4315 22.4967 13.8144 22.9782C13.1974 23.4597 12.7564 24.1313 12.56 24.8889H10.6667C10.4309 24.8889 10.2048 24.7952 10.0381 24.6285C9.87143 24.4618 9.77778 24.2358 9.77778 24V20.4444H11.5556C11.7913 20.4444 12.0174 20.3508 12.1841 20.1841C12.3508 20.0174 12.4444 19.7913 12.4444 19.5556C12.4444 19.3198 12.3508 19.0937 12.1841 18.927C12.0174 18.7603 11.7913 18.6667 11.5556 18.6667H9.77778V9.77779C9.77778 9.07054 10.0587 8.39227 10.5588 7.89217C11.0589 7.39207 11.7372 7.11112 12.4444 7.11112L12.5716 7.16712C12.7798 7.91683 13.2276 8.57783 13.8466 9.04921C14.4656 9.52059 15.2219 9.77647 16 9.77779C16.7886 9.77108 17.5534 9.50694 18.178 9.02558C18.8027 8.54421 19.253 7.87196 19.4604 7.11112H19.5556C20.2628 7.11112 20.9411 7.39207 21.4412 7.89217C21.9413 8.39227 22.2222 9.07054 22.2222 9.77779V18.6667H20.4444C20.2087 18.6667 19.9826 18.7603 19.8159 18.927C19.6492 19.0937 19.5556 19.3198 19.5556 19.5556C19.5556 19.7913 19.6492 20.0174 19.8159 20.1841C19.9826 20.3508 20.2087 20.4444 20.4444 20.4444H22.2222V24C22.2222 24.2358 22.1286 24.4618 21.9619 24.6285C21.7952 24.7952 21.5691 24.8889 21.3333 24.8889Z" fill="" />
        <path d="M16.8889 18.6667H15.1111C14.8754 18.6667 14.6493 18.7603 14.4826 18.927C14.3159 19.0937 14.2222 19.3198 14.2222 19.5556C14.2222 19.7913 14.3159 20.0174 14.4826 20.1841C14.6493 20.3508 14.8754 20.4445 15.1111 20.4445H16.8889C17.1246 20.4445 17.3507 20.3508 17.5174 20.1841C17.6841 20.0174 17.7778 19.7913 17.7778 19.5556C17.7778 19.3198 17.6841 19.0937 17.5174 18.927C17.3507 18.7603 17.1246 18.6667 16.8889 18.6667Z" fill="" />
    </g>
    <defs>
        <clipPath id="clip0_58_87">
            <rect width="21.3333" height="21.3333" transform="translate(5.33334 5.33334)" />
        </clipPath>
    </defs>
</svg>