<svg width="37" height="37" viewBox="0 0 37 37" fill="none" xmlns="http://www.w3.org/2000/svg">
<g clip-path="url(#clip0_301_1993)">
<path d="M18.2886 12.3502C17.4975 12.3502 16.7241 12.5848 16.0663 13.0243C15.4085 13.4638 14.8958 14.0886 14.5931 14.8195C14.2903 15.5504 14.2111 16.3546 14.3654 17.1306C14.5198 17.9065 14.9007 18.6192 15.4602 19.1786C16.0196 19.738 16.7323 20.119 17.5082 20.2733C18.2841 20.4277 19.0884 20.3485 19.8193 20.0457C20.5502 19.743 21.1749 19.2303 21.6145 18.5725C22.054 17.9147 22.2886 17.1413 22.2886 16.3502C22.2886 15.2893 21.8672 14.2719 21.117 13.5218C20.3669 12.7716 19.3494 12.3502 18.2886 12.3502ZM18.2886 18.3502C17.893 18.3502 17.5063 18.2329 17.1774 18.0131C16.8485 17.7934 16.5922 17.481 16.4408 17.1156C16.2894 16.7501 16.2498 16.348 16.327 15.96C16.4042 15.572 16.5947 15.2157 16.8744 14.936C17.1541 14.6563 17.5104 14.4658 17.8984 14.3886C18.2864 14.3114 18.6885 14.3511 19.0539 14.5024C19.4194 14.6538 19.7318 14.9102 19.9515 15.239C20.1713 15.5679 20.2886 15.9546 20.2886 16.3502C20.2886 16.8806 20.0779 17.3893 19.7028 17.7644C19.3277 18.1395 18.819 18.3502 18.2886 18.3502Z" fill="#FDA636"/>
<path d="M18.2885 30.3502C17.4465 30.3545 16.6156 30.157 15.8656 29.7742C15.1155 29.3915 14.4681 28.8346 13.9775 28.1502C10.1665 22.8932 8.23352 18.9412 8.23352 16.4032C8.23352 13.7364 9.29288 11.1789 11.1786 9.29322C13.0642 7.40754 15.6218 6.34818 18.2885 6.34818C20.9553 6.34818 23.5128 7.40754 25.3985 9.29322C27.2842 11.1789 28.3435 13.7364 28.3435 16.4032C28.3435 18.9412 26.4105 22.8932 22.5995 28.1502C22.1089 28.8346 21.4615 29.3915 20.7115 29.7742C19.9614 30.157 19.1306 30.3545 18.2885 30.3502V30.3502ZM18.2885 8.53117C16.2009 8.53356 14.1995 9.3639 12.7234 10.84C11.2472 12.3162 10.4169 14.3176 10.4145 16.4052C10.4145 18.4152 12.3075 22.1322 15.7435 26.8712C16.0352 27.2729 16.4179 27.6 16.8602 27.8254C17.3026 28.0509 17.792 28.1685 18.2885 28.1685C18.785 28.1685 19.2745 28.0509 19.7168 27.8254C20.1592 27.6 20.5418 27.2729 20.8335 26.8712C24.2695 22.1322 26.1625 18.4152 26.1625 16.4052C26.1601 14.3176 25.3298 12.3162 23.8537 10.84C22.3775 9.3639 20.3761 8.53356 18.2885 8.53117V8.53117Z" fill="#FDA636"/>
</g>
<defs>
<clipPath id="clip0_301_1993">
<rect width="24" height="24" fill="white" transform="translate(6.28857 6.35019)"/>
</clipPath>
</defs>
</svg>
