<svg width="37" height="37" viewBox="0 0 37 37" fill="none" xmlns="http://www.w3.org/2000/svg">
<g clip-path="url(#clip0_301_1984)">
<path d="M21.3916 11.8361C21.3916 12.1013 21.2863 12.3557 21.0987 12.5432C20.9112 12.7308 20.6568 12.8361 20.3916 12.8361H16.3916C16.1264 12.8361 15.8721 12.7308 15.6845 12.5432C15.497 12.3557 15.3916 12.1013 15.3916 11.8361C15.3916 11.5709 15.497 11.3165 15.6845 11.129C15.8721 10.9415 16.1264 10.8361 16.3916 10.8361H20.3916C20.6568 10.8361 20.9112 10.9415 21.0987 11.129C21.2863 11.3165 21.3916 11.5709 21.3916 11.8361ZM27.3916 12.5561V23.0131C27.3913 24.2696 26.9179 25.4799 26.0656 26.4031L27.3156 29.4571C27.3653 29.5787 27.3906 29.7089 27.39 29.8403C27.3894 29.9717 27.3629 30.1016 27.312 30.2228C27.2612 30.3439 27.187 30.4538 27.0937 30.5463C27.0003 30.6387 26.8897 30.7119 26.7681 30.7616C26.6465 30.8113 26.5163 30.8366 26.3849 30.836C26.2536 30.8354 26.1236 30.8089 26.0025 30.758C25.8813 30.7072 25.7714 30.633 25.679 30.5397C25.5865 30.4463 25.5133 30.3357 25.4636 30.2141L24.3916 27.5811C22.5135 28.4515 20.4612 28.8808 18.3916 28.8361C16.3221 28.8804 14.2699 28.4512 12.3916 27.5811L11.3186 30.2141C11.2702 30.3374 11.1977 30.4498 11.1054 30.5449C11.0131 30.6399 10.9029 30.7157 10.7811 30.7678C10.6593 30.8199 10.5283 30.8472 10.3958 30.8483C10.2634 30.8493 10.132 30.824 10.0094 30.7739C9.88679 30.7237 9.77536 30.6497 9.68158 30.5561C9.58781 30.4626 9.51357 30.3513 9.46316 30.2288C9.41275 30.1063 9.38719 29.975 9.38796 29.8425C9.38872 29.71 9.4158 29.579 9.46762 29.4571L10.7166 26.4031C9.86474 25.4797 9.39171 24.2695 9.39162 23.0131V12.5561C9.38835 11.4956 9.72361 10.4616 10.3486 9.60479C10.9736 8.74795 11.8557 8.11292 12.8666 7.79212C14.6485 7.19256 16.5119 6.87014 18.3916 6.83612C20.2715 6.86986 22.1349 7.19264 23.9166 7.79312C24.9276 8.11346 25.8099 8.74823 26.4349 9.60496C27.06 10.4617 27.3952 11.4956 27.3916 12.5561V12.5561ZM25.3916 18.5731C23.8386 20.9011 21.4416 22.8361 18.3916 22.8361C15.3416 22.8361 12.9446 20.9011 11.3916 18.5731V23.0131C11.3869 23.5433 11.5247 24.065 11.7907 24.5236C12.0567 24.9822 12.4411 25.361 12.9036 25.6201C14.6018 26.48 16.4892 26.8982 18.3916 26.8361C20.2938 26.8984 22.1809 26.4802 23.8786 25.6201C24.3414 25.3612 24.726 24.9825 24.9922 24.5239C25.2584 24.0652 25.3964 23.5434 25.3916 23.0131V18.5731ZM25.3916 12.8361V12.5561C25.3938 11.9201 25.193 11.2999 24.8183 10.7859C24.4437 10.2718 23.9148 9.89077 23.3086 9.69812C21.7234 9.16101 20.0651 8.8703 18.3916 8.83612C16.7183 8.87054 15.0601 9.1609 13.4746 9.69712C12.8684 9.89009 12.3396 10.2714 11.965 10.7855C11.5904 11.2997 11.3895 11.92 11.3916 12.5561V12.8361C11.3916 15.2791 14.0366 20.8361 18.3916 20.8361C22.7466 20.8361 25.3916 15.2791 25.3916 12.8361ZM18.3916 23.8361C18.1938 23.8361 18.0005 23.8948 17.8361 24.0046C17.6716 24.1145 17.5434 24.2707 17.4677 24.4534C17.3921 24.6362 17.3723 24.8372 17.4108 25.0312C17.4494 25.2252 17.5447 25.4034 17.6845 25.5432C17.8244 25.6831 18.0026 25.7783 18.1965 25.8169C18.3905 25.8555 18.5916 25.8357 18.7743 25.76C18.957 25.6843 19.1132 25.5561 19.2231 25.3917C19.333 25.2272 19.3916 25.0339 19.3916 24.8361C19.3916 24.5709 19.2863 24.3165 19.0987 24.129C18.9112 23.9415 18.6568 23.8361 18.3916 23.8361Z" fill="#FDA636"/>
</g>
<defs>
<clipPath id="clip0_301_1984">
<rect width="24" height="24" fill="white" transform="translate(6.3916 6.83612)"/>
</clipPath>
</defs>
</svg>
