<svg width="30" height="30" viewBox="0 0 30 30" fill="none" xmlns="http://www.w3.org/2000/svg">
<path d="M12.1875 9.48753V19.9594C12.1864 20.1456 12.2408 20.3279 12.3438 20.4831C12.4467 20.6383 12.5935 20.7593 12.7655 20.8307C12.9375 20.9021 13.1268 20.9207 13.3094 20.884C13.492 20.8474 13.6595 20.7572 13.7906 20.625L19.0219 15.3844C19.1965 15.2087 19.2945 14.9711 19.2945 14.7235C19.2945 14.4758 19.1965 14.2382 19.0219 14.0625L13.7906 8.82191C13.6595 8.68969 13.492 8.59952 13.3094 8.56289C13.1268 8.52627 12.9375 8.54484 12.7655 8.61625C12.5935 8.68765 12.4467 8.80866 12.3438 8.96383C12.2408 9.119 12.1864 9.30132 12.1875 9.48753Z" fill="#444444"/>
</svg>
