<svg width="44" height="44" viewBox="0 0 44 44" fill="currentColor" xmlns="http://www.w3.org/2000/svg">
    <path d="M27.2112 31.2263C27.3401 31.0984 27.4424 30.9464 27.5122 30.7788C27.582 30.6112 27.6179 30.4315 27.6179 30.25C27.6179 30.0685 27.582 29.8888 27.5122 29.7212C27.4424 29.5537 27.3401 29.4016 27.2112 29.2738L20.9137 22.9763C20.7848 22.8484 20.6825 22.6963 20.6127 22.5288C20.5429 22.3612 20.507 22.1815 20.507 22C20.507 21.8185 20.5429 21.6388 20.6127 21.4712C20.6825 21.3037 20.7848 21.1516 20.9137 21.0238L27.2112 14.7262C27.3401 14.5984 27.4424 14.4463 27.5122 14.2788C27.582 14.1112 27.6179 13.9315 27.6179 13.75C27.6179 13.5685 27.582 13.3888 27.5122 13.2212C27.4424 13.0536 27.3401 12.9016 27.2112 12.7737C26.9536 12.5177 26.6051 12.3739 26.2418 12.3739C25.8786 12.3739 25.5301 12.5177 25.2724 12.7737L18.9612 19.085C18.1887 19.8584 17.7548 20.9069 17.7548 22C17.7548 23.0931 18.1887 24.1416 18.9612 24.915L25.2724 31.2263C25.5301 31.4823 25.8786 31.6261 26.2418 31.6261C26.6051 31.6261 26.9536 31.4823 27.2112 31.2263Z" />
</svg>