<svg width="36" height="37" viewBox="0 0 36 37" fill="none" xmlns="http://www.w3.org/2000/svg">
<g clip-path="url(#clip0_301_2060)">
<path d="M24.125 10.1143H23.25V9.23926C23.25 9.00719 23.1578 8.78463 22.9937 8.62054C22.8296 8.45645 22.6071 8.36426 22.375 8.36426C22.1429 8.36426 21.9204 8.45645 21.7563 8.62054C21.5922 8.78463 21.5 9.00719 21.5 9.23926V10.1143H14.5V9.23926C14.5 9.00719 14.4078 8.78463 14.2437 8.62054C14.0796 8.45645 13.8571 8.36426 13.625 8.36426C13.3929 8.36426 13.1704 8.45645 13.0063 8.62054C12.8422 8.78463 12.75 9.00719 12.75 9.23926V10.1143H11.875C10.7151 10.1156 9.60311 10.577 8.78294 11.3972C7.96277 12.2174 7.50139 13.3294 7.5 14.4893L7.5 24.9893C7.50139 26.1492 7.96277 27.2611 8.78294 28.0813C9.60311 28.9015 10.7151 29.3629 11.875 29.3643H24.125C25.2849 29.3629 26.3969 28.9015 27.2171 28.0813C28.0372 27.2611 28.4986 26.1492 28.5 24.9893V14.4893C28.4986 13.3294 28.0372 12.2174 27.2171 11.3972C26.3969 10.577 25.2849 10.1156 24.125 10.1143V10.1143ZM9.25 14.4893C9.25 13.7931 9.52656 13.1254 10.0188 12.6331C10.5111 12.1408 11.1788 11.8643 11.875 11.8643H24.125C24.8212 11.8643 25.4889 12.1408 25.9812 12.6331C26.4734 13.1254 26.75 13.7931 26.75 14.4893V15.3643H9.25V14.4893ZM24.125 27.6143H11.875C11.1788 27.6143 10.5111 27.3377 10.0188 26.8454C9.52656 26.3531 9.25 25.6855 9.25 24.9893V17.1143H26.75V24.9893C26.75 25.6855 26.4734 26.3531 25.9812 26.8454C25.4889 27.3377 24.8212 27.6143 24.125 27.6143Z" fill="#FDA636"/>
<path d="M18 22.8018C18.7249 22.8018 19.3125 22.2141 19.3125 21.4893C19.3125 20.7644 18.7249 20.1768 18 20.1768C17.2751 20.1768 16.6875 20.7644 16.6875 21.4893C16.6875 22.2141 17.2751 22.8018 18 22.8018Z" fill="#FDA636"/>
<path d="M13.625 22.8018C14.3499 22.8018 14.9375 22.2141 14.9375 21.4893C14.9375 20.7644 14.3499 20.1768 13.625 20.1768C12.9001 20.1768 12.3125 20.7644 12.3125 21.4893C12.3125 22.2141 12.9001 22.8018 13.625 22.8018Z" fill="#FDA636"/>
<path d="M22.375 22.8018C23.0999 22.8018 23.6875 22.2141 23.6875 21.4893C23.6875 20.7644 23.0999 20.1768 22.375 20.1768C21.6501 20.1768 21.0625 20.7644 21.0625 21.4893C21.0625 22.2141 21.6501 22.8018 22.375 22.8018Z" fill="#FDA636"/>
</g>
<defs>
<clipPath id="clip0_301_2060">
<rect width="21" height="21" fill="white" transform="translate(7.5 8.36426)"/>
</clipPath>
</defs>
</svg>
