<svg height="512pt" viewBox="0 0 512 512" width="512pt" xmlns="http://www.w3.org/2000/svg">
    <path fill="" d="m96 112h-16v-32h32v16h-16zm0 0" />
    <path fill="" d="m336 144h-32v-16h16v-16h16zm0 0" />
    <path fill="" d="m264 120h-16v-16h16zm-32 0h-16v-16h16zm-32 0h-16v-16h16zm-32 0h-16v-16h16zm0 0" />
    <path fill="" d="m480 48h-64v-48h-416v408c.0390625 30.910156 25.089844 55.960938 56 56h112v48h16v-80h28v-16h-36c-6.910156-.027344-13.203125-3.972656-16.238281-10.175781l-39.203125-80.855469c-2.710938-4.898438-1.085938-11.0625 3.6875-13.984375 4.773437-2.925781 11-1.570313 14.128906 3.070313l22.425781 33.945312h15.199219v-132c0-4.417969 3.582031-8 8-8s8 3.582031 8 8v92h16v-32h8c4.417969 0 8 3.582031 8 8v40h16v-32h8c4.417969 0 8 3.582031 8 8v40h16v-32h8c4.417969 0 8 3.582031 8 8v74.113281l-16 32v89.886719h16v-48h168c30.910156-.039062 55.960938-25.089844 56-56v-328c0-17.671875-14.328125-32-32-32zm-64 16h36.449219c-2.878907 4.84375-4.417969 10.367188-4.449219 16v320h-32zm-128 384v-22.113281l16-32v-9.886719h64v-16h-64v-16h64v-16h-64v-16h64v-16h-67.335938c-4.257812-7.398438-12.128906-11.96875-20.664062-12h-9.367188c-.507812-1.390625-1.144531-2.730469-1.90625-4h99.273438v-16h-131.273438c-4.277343-7.40625-12.171874-11.980469-20.726562-12h-8v-4h160v-16h-160v-16h160v-16h-161.472656c-3.339844-9.585938-12.378906-16.007812-22.527344-16.007812s-19.1875 6.421874-22.527344 16.007812h-113.472656v16h112v16h-112v16h112v16h-112v16h112v29.800781l-8.3125-12.578125c-7.390625-11.140625-21.921875-15.027344-33.886719-9.0625-3.660156 1.851563-6.828125 4.535156-9.257812 7.839844h-60.542969v16h55.28125c-.058594 4.332031 1.007812 8.605469 3.09375 12.398438l1.746094 3.601562h-60.121094v16h67.878906l7.761719 16h-75.640625v16h83.390625l13.96875 28.800781c4.472656 9.132813 12.765625 15.808594 22.640625 18.230469v16.96875h-112c-22.082031-.027344-39.972656-17.917969-40-40v-392h384v392c-.003906 15.066406 6.085938 29.496094 16.886719 40zm208-40c.019531 20.550781-15.535156 37.773438-35.980469 39.835938-20.445312 2.066406-39.128906-11.695313-43.21875-31.835938h47.199219v-336c0-8.835938 7.164062-16 16-16s16 7.164062 16 16zm0 0" />
    <path fill="" d="m48 176h320v-128h-320zm16-112h288v96h-288zm0 0" />
</svg>