<svg width="32" height="32" viewBox="0 0 32 32" xmlns="http://www.w3.org/2000/svg">
    <g clip-path="url(#clip0_58_92)">
        <path d="M16 5.33334C13.8903 5.33334 11.828 5.95893 10.0739 7.131C8.31978 8.30307 6.9526 9.96897 6.14527 11.9181C5.33793 13.8671 5.1267 16.0118 5.53827 18.081C5.94985 20.1501 6.96575 22.0507 8.45751 23.5425C9.94927 25.0342 11.8499 26.0501 13.919 26.4617C15.9882 26.8733 18.1329 26.6621 20.0819 25.8547C22.031 25.0474 23.6969 23.6802 24.869 21.9261C26.0411 20.172 26.6667 18.1097 26.6667 16C26.6636 13.172 25.5388 10.4606 23.5391 8.46092C21.5394 6.46119 18.828 5.3364 16 5.33334V5.33334ZM16 24.8889C14.2419 24.8889 12.5234 24.3676 11.0616 23.3908C9.59981 22.4141 8.4605 21.0259 7.78772 19.4016C7.11494 17.7774 6.93891 15.9901 7.28189 14.2659C7.62487 12.5416 8.47146 10.9577 9.71459 9.71462C10.9577 8.47148 12.5416 7.6249 14.2658 7.28192C15.9901 6.93894 17.7774 7.11497 19.4016 7.78775C21.0258 8.46053 22.4141 9.59984 23.3908 11.0616C24.3675 12.5234 24.8889 14.242 24.8889 16C24.8863 18.3567 23.9489 20.6161 22.2825 22.2825C20.6161 23.949 18.3567 24.8863 16 24.8889Z" />
        <path d="M16.6373 9.8338C16.1247 9.74041 15.5978 9.76081 15.094 9.89357C14.5902 10.0263 14.1217 10.2682 13.7216 10.6021C13.3216 10.9359 12.9999 11.3536 12.7792 11.8256C12.5584 12.2976 12.4442 12.8123 12.4444 13.3334C12.4444 13.5691 12.538 13.7952 12.7047 13.9619C12.8714 14.1286 13.0975 14.2222 13.3333 14.2222C13.569 14.2222 13.7951 14.1286 13.9618 13.9619C14.1285 13.7952 14.2222 13.5691 14.2222 13.3334C14.222 13.0718 14.2794 12.8135 14.3905 12.5767C14.5016 12.3399 14.6636 12.1306 14.8649 11.9636C15.0661 11.7966 15.3018 11.6761 15.555 11.6106C15.8082 11.5452 16.0727 11.5364 16.3297 11.5849C16.6809 11.6531 17.0037 11.8244 17.2571 12.0769C17.5104 12.3294 17.6827 12.6518 17.752 13.0027C17.8219 13.371 17.7736 13.7521 17.614 14.0913C17.4543 14.4306 17.1915 14.7107 16.8631 14.8916C16.3192 15.2067 15.8698 15.6618 15.5617 16.2096C15.2535 16.7574 15.0979 17.3779 15.1111 18.0062V18.6667C15.1111 18.9024 15.2047 19.1285 15.3714 19.2952C15.5381 19.4619 15.7642 19.5556 16 19.5556C16.2357 19.5556 16.4618 19.4619 16.6285 19.2952C16.7952 19.1285 16.8888 18.9024 16.8888 18.6667V18.0062C16.8777 17.6969 16.9482 17.3901 17.0934 17.1167C17.2385 16.8433 17.4531 16.613 17.7155 16.4489C18.3595 16.0952 18.8781 15.5507 19.2 14.8902C19.5219 14.2297 19.6313 13.4857 19.5131 12.7605C19.3949 12.0353 19.0549 11.3645 18.54 10.8405C18.025 10.3164 17.3603 9.9647 16.6373 9.8338Z" />
        <path d="M16.8889 21.3333C16.8889 20.8424 16.4909 20.4445 16 20.4445C15.5091 20.4445 15.1111 20.8424 15.1111 21.3333C15.1111 21.8243 15.5091 22.2222 16 22.2222C16.4909 22.2222 16.8889 21.8243 16.8889 21.3333Z" />
    </g>
    <defs>
        <clipPath id="clip0_58_92">
            <rect width="21.3333" height="21.3333" transform="translate(5.33331 5.33334)" />
        </clipPath>
    </defs>
</svg>