<svg width="307" height="42" viewBox="0 0 307 42" fill="none" xmlns="http://www.w3.org/2000/svg">
<path d="M0 12.2981H2.2711V7.37891H8.05442V12.2981H12.1743V17.4116H8.05442V24.8057C8.00119 25.5832 8.26044 26.3499 8.7754 26.938C9.03377 27.1883 9.34141 27.3829 9.67904 27.5096C10.0167 27.6363 10.377 27.6924 10.7375 27.6744C11.028 27.6765 11.3179 27.6491 11.6027 27.5926C11.8565 27.5436 12.1062 27.4752 12.3494 27.388C12.5747 27.2903 12.7947 27.181 13.0086 27.0608L13.8326 31.9799C13.4484 32.1538 13.0483 32.2908 12.6378 32.389C12.1961 32.5117 11.7472 32.6074 11.2937 32.6754C10.7691 32.7583 10.2387 32.7993 9.70753 32.7981C8.70442 32.8092 7.71055 32.6069 6.7927 32.2049C5.90737 31.8163 5.10769 31.2586 4.4392 30.5635C3.74429 29.8383 3.2047 28.9807 2.85303 28.0425C2.45657 27.0093 2.25917 25.9113 2.2711 24.8057V17.4269H0V12.2981Z" fill="white"/>
<path d="M15.0737 22.1415C15.0605 20.6836 15.3262 19.2365 15.8565 17.8769C16.3397 16.6325 17.0464 15.4855 17.9422 14.4918C18.7833 13.5722 19.7937 12.8207 20.9189 12.2776C21.9912 11.755 23.1696 11.4822 24.3641 11.4799C25.2122 11.4595 26.0554 11.6127 26.8412 11.9299C27.4477 12.1825 28.0175 12.5144 28.5355 12.9168C29.008 13.3279 29.4113 13.8112 29.7303 14.3486H30.1475V12.3032H35.9256V31.9646H30.1475V29.9192H29.7303C29.4263 30.4683 29.021 30.9557 28.5355 31.3561C28.0299 31.7853 27.4578 32.1306 26.8412 32.3788C26.0522 32.6831 25.2103 32.8291 24.3641 32.8083C23.1696 32.806 21.9912 32.5332 20.9189 32.0106C19.7926 31.4693 18.782 30.7175 17.9422 29.7964C17.0465 28.8046 16.3398 27.6593 15.8565 26.4164C15.3257 25.0534 15.0601 23.6028 15.0737 22.1415ZM30.1475 20.0961C29.8335 19.4672 29.4293 18.8867 28.9475 18.3729C28.5287 17.909 28.0489 17.5031 27.521 17.1661C26.9519 16.7981 26.2842 16.6091 25.6053 16.6241C24.9663 16.6054 24.3308 16.7241 23.7423 16.9722C23.1539 17.2202 22.6264 17.5916 22.196 18.061C21.2897 19.0325 20.8313 20.3927 20.8313 22.1518C20.8313 23.9108 21.2897 25.2608 22.196 26.2426C22.6233 26.7113 23.147 27.0835 23.7315 27.334C24.3161 27.5845 24.9481 27.7076 25.5847 27.6948C26.2594 27.7104 26.9245 27.5329 27.5004 27.1834C28.0323 26.8581 28.513 26.4566 28.9269 25.992C29.4148 25.4697 29.8194 24.8766 30.1269 24.233L30.1475 20.0961ZM21.2691 4.51021C21.2658 3.91805 21.385 3.33153 21.6192 2.78697C21.8446 2.25145 22.1735 1.76501 22.5874 1.35519C23.0037 0.939582 23.4945 0.604873 24.0345 0.368289C24.5936 0.121147 25.1993 -0.00438659 25.8112 0.000117025C26.4079 -0.00113397 26.9979 0.124401 27.5416 0.368289C28.0817 0.604873 28.5725 0.939582 28.9887 1.35519C29.404 1.76816 29.7392 2.25351 29.9775 2.78697C30.2275 3.32742 30.3558 3.91549 30.3534 4.51021C30.3588 5.11841 30.2305 5.72045 29.9775 6.27437C29.7392 6.80783 29.404 7.29317 28.9887 7.70615C28.5743 8.11879 28.0828 8.44709 27.5416 8.6726C26.9942 8.90277 26.4057 9.02103 25.8112 9.02032C25.2129 9.02505 24.6196 8.91125 24.066 8.68561C23.5125 8.45996 23.0098 8.12698 22.5874 7.70615C22.1651 7.28691 21.8311 6.78843 21.6048 6.23974C21.3784 5.69105 21.2643 5.10313 21.2691 4.51021ZM23.9521 4.51021C23.9334 4.7814 23.9693 5.05357 24.0577 5.31082C24.1462 5.56807 24.2853 5.80524 24.4671 6.00847C24.643 6.19028 24.8553 6.33338 25.0904 6.42852C25.3255 6.52365 25.5781 6.5687 25.8318 6.56073C26.0718 6.56284 26.3096 6.51475 26.5296 6.41961C26.7497 6.32446 26.9471 6.18438 27.109 6.00847C27.4552 5.58481 27.6442 5.05581 27.6442 4.51021C27.6442 3.96462 27.4552 3.43562 27.109 3.01196C26.9369 2.83741 26.7314 2.69872 26.5045 2.60405C26.2777 2.50937 26.0341 2.4606 25.7881 2.4606C25.542 2.4606 25.2984 2.50937 25.0716 2.60405C24.8448 2.69872 24.6393 2.83741 24.4671 3.01196C24.2853 3.21519 24.1462 3.45236 24.0577 3.70961C23.9693 3.96686 23.9334 4.23903 23.9521 4.51021Z" fill="white"/>
<path d="M39.2267 21.7376C39.2182 20.3592 39.4861 18.9929 40.0146 17.7184C40.5021 16.5129 41.2092 15.407 42.1003 14.456C42.9469 13.5553 43.9545 12.8184 45.0718 12.2827C46.1444 11.7606 47.3226 11.4878 48.5171 11.485C49.3651 11.4646 50.2083 11.6178 50.9942 11.935C51.6012 12.1865 52.1712 12.5185 52.6885 12.9219C53.1625 13.3328 53.5676 13.8162 53.8884 14.3537H54.3004V12.3083H60.0786V31.4174C60.0796 32.6663 59.8054 33.9002 59.2752 35.0327C58.2018 37.3625 56.2867 39.2074 53.909 40.2024C52.6608 40.7244 51.3186 40.9889 49.9642 40.9796C48.6986 41.0054 47.4368 40.8328 46.2254 40.4683C45.2043 40.1448 44.2426 39.6596 43.3775 39.0314C42.5786 38.4527 41.8825 37.7459 41.3175 36.94C40.7788 36.1683 40.3491 35.327 40.0404 34.4395L45.8185 33.6213C46.1952 34.2218 46.6868 34.743 47.2656 35.1554C48.0555 35.6842 48.9975 35.9427 49.9487 35.8917C50.523 35.9063 51.0941 35.8025 51.6259 35.5868C52.1578 35.3712 52.6388 35.0484 53.0387 34.6389C53.4563 34.2073 53.7815 33.6962 53.9948 33.1363C54.2081 32.5765 54.3051 31.9796 54.2798 31.3816V29.1266H53.8678C53.5619 29.6744 53.1548 30.1601 52.6679 30.5583C52.163 30.9887 51.5907 31.3341 50.9736 31.581C50.1847 31.8858 49.3427 32.0318 48.4965 32.0106C47.302 32.0078 46.1238 31.735 45.0512 31.2129C43.9339 30.6772 42.9263 29.9403 42.0797 29.0396C41.19 28.0952 40.483 26.9962 39.994 25.7977C39.4652 24.5095 39.2042 23.1285 39.2267 21.7376ZM54.3004 20.0961C53.9882 19.4661 53.5839 18.8854 53.1005 18.3729C52.6835 17.909 52.2054 17.5031 51.6791 17.1661C51.1099 16.7925 50.4404 16.5983 49.7582 16.6087C49.1266 16.5944 48.499 16.7111 47.9154 16.9515C47.3319 17.1919 46.8054 17.5506 46.3696 18.0047C45.4912 19.0521 45.0102 20.372 45.0102 21.735C45.0102 23.098 45.4912 24.4179 46.3696 25.4653C46.8054 25.9194 47.3319 26.2782 47.9154 26.5186C48.499 26.7589 49.1266 26.8757 49.7582 26.8613C50.4346 26.8767 51.1012 26.6993 51.6791 26.3499C52.2083 26.0229 52.687 25.6216 53.1005 25.1585C53.5912 24.6366 53.9961 24.0413 54.3004 23.3943V20.0961Z" fill="white"/>
<path d="M85.2666 22.1415C85.279 23.5994 85.0133 25.0464 84.4838 26.4062C84.0084 27.6471 83.3105 28.7923 82.4239 29.7862C81.586 30.7071 80.5771 31.4589 79.4524 32.0003C78.378 32.5224 77.1981 32.7951 76.002 32.798C75.1488 32.8226 74.2994 32.6765 73.5043 32.3685C72.8958 32.117 72.331 31.7718 71.8306 31.3458C71.335 30.9513 70.9191 30.4673 70.6049 29.9191H70.1929V31.9645H64.425V3.28296H70.2084V14.3486H70.6204C70.9393 13.8112 71.3427 13.3279 71.8151 12.9168C72.3279 12.5176 72.8904 12.1859 73.4888 11.9299C74.2811 11.6099 75.1316 11.4567 75.9865 11.4799C77.1827 11.4828 78.3625 11.7556 79.437 12.2776C80.5608 12.8204 81.5694 13.572 82.4084 14.4917C83.2951 15.4875 83.993 16.6344 84.4684 17.8769C85.004 19.2354 85.2749 20.6826 85.2666 22.1415ZM70.1981 24.1869C70.5019 24.8313 70.905 25.4248 71.3928 25.946C71.8068 26.4106 72.2875 26.812 72.8194 27.1374C73.3969 27.4875 74.0638 27.665 74.7403 27.6488C75.3761 27.6618 76.0074 27.5389 76.5912 27.2883C77.175 27.0377 77.6977 26.6654 78.1237 26.1965C79.037 25.225 79.4919 23.8614 79.4885 22.1057C79.485 20.3501 79.0301 18.9865 78.1237 18.0149C77.6907 17.5547 77.1631 17.1923 76.5767 16.9523C75.9902 16.7123 75.3587 16.6004 74.7248 16.6241C74.0425 16.613 73.3728 16.8073 72.8039 17.1814C72.2761 17.5184 71.7963 17.9243 71.3774 18.3882C70.8956 18.9009 70.493 19.4816 70.1826 20.1115L70.1981 24.1869Z" fill="white"/>
<path d="M98.6871 32.7981C97.2315 32.8047 95.7902 32.5122 94.4539 31.939C93.1558 31.3907 91.9731 30.6049 90.9675 29.6226C89.9754 28.6533 89.1769 27.5065 88.614 26.2426C88.0401 24.954 87.7437 23.5607 87.7437 22.1518C87.7437 20.7429 88.0401 19.3495 88.614 18.061C89.1727 16.7872 89.9715 15.6312 90.9675 14.6554C91.9759 13.6764 93.1579 12.8911 94.4539 12.339C95.7922 11.7721 97.2322 11.4799 98.6871 11.4799C100.142 11.4799 101.582 11.7721 102.92 12.339C104.216 12.8911 105.398 13.6764 106.407 14.6554C107.403 15.6323 108.203 16.7879 108.765 18.061C109.336 19.3504 109.631 20.7434 109.631 22.1518C109.631 23.5601 109.336 24.9531 108.765 26.2426C108.199 27.5057 107.399 28.6521 106.407 29.6226C105.401 30.6049 104.218 31.3907 102.92 31.939C101.584 32.5122 100.143 32.8047 98.6871 32.7981ZM98.6871 27.6846C99.358 27.6826 100.02 27.536 100.629 27.255C101.255 26.9728 101.817 26.5675 102.282 26.0636C102.759 25.5468 103.143 24.9516 103.415 24.3046C103.699 23.622 103.846 22.8905 103.846 22.1518C103.846 21.413 103.699 20.6815 103.415 19.999C103.142 19.3509 102.758 18.7541 102.282 18.2348C101.816 17.7321 101.254 17.327 100.629 17.0434C100.021 16.7605 99.3582 16.6138 98.6871 16.6138C98.0161 16.6138 97.3532 16.7605 96.7456 17.0434C96.121 17.3261 95.5604 17.7314 95.0977 18.2348C94.6197 18.7541 94.2348 19.3508 93.9596 19.999C93.6748 20.6815 93.5282 21.413 93.5282 22.1518C93.5282 22.8905 93.6748 23.622 93.9596 24.3046C94.2336 24.9518 94.6187 25.547 95.0977 26.0636C95.5591 26.5686 96.12 26.9741 96.7456 27.255C97.3547 27.5325 98.0171 27.6756 98.6871 27.6743V27.6846Z" fill="white"/>
<path d="M118.921 31.9646H113.138V3.28296H118.921V19.2729L125.528 12.298H132.548L125.528 19.6922L133.166 31.9646H126.764L121.614 23.783L118.931 26.6567L118.921 31.9646Z" fill="white"/>
<path d="M154.635 31.9646H148.883V20.7149C148.935 19.6258 148.556 18.5598 147.827 17.7439C147.524 17.3913 147.147 17.1078 146.723 16.9128C146.299 16.7178 145.838 16.6158 145.371 16.6138C144.72 16.602 144.083 16.7973 143.553 17.1712C142.477 17.9205 141.611 18.9286 141.035 20.1012V31.9646H135.231V12.2981H141.009V14.3434H141.426C141.743 13.8049 142.147 13.3213 142.621 12.9117C143.102 12.5109 143.638 12.1787 144.212 11.9248C144.961 11.6057 145.771 11.4521 146.586 11.4748C147.651 11.4712 148.705 11.6943 149.676 12.1293C150.653 12.571 151.53 13.2061 152.251 13.9957C153.02 14.844 153.616 15.832 154.007 16.9053C154.447 18.1218 154.664 19.407 154.646 20.6995L154.635 31.9646Z" fill="white"/>
<path d="M158.354 5.3284C158.368 4.58571 158.64 3.8707 159.124 3.30444C159.609 2.73818 160.275 2.35545 161.011 2.22107C161.746 2.08668 162.506 2.2089 163.162 2.56702C163.817 2.92514 164.328 3.49715 164.607 4.18622C164.887 4.87528 164.918 5.63905 164.695 6.34821C164.472 7.05737 164.01 7.66833 163.386 8.07766C162.761 8.487 162.014 8.66954 161.269 8.59438C160.525 8.51923 159.83 8.191 159.301 7.66526C158.991 7.36053 158.747 6.99601 158.584 6.59412C158.421 6.19224 158.343 5.7615 158.354 5.3284ZM164.534 31.9799H158.766V12.2981H164.549L164.534 31.9799Z" fill="white"/>
<path d="M188.29 31.9646H182.507V20.7149C182.563 19.6296 182.194 18.5648 181.477 17.7439C181.173 17.3918 180.796 17.1087 180.372 16.9137C179.948 16.7187 179.487 16.6165 179.02 16.6139C178.37 16.6005 177.732 16.796 177.202 17.1712C176.702 17.5193 176.244 17.9243 175.838 18.378C175.379 18.9001 174.991 19.4794 174.684 20.1013V31.9646H168.88V12.2981H174.663V14.3435H175.075C175.395 13.8048 175.8 13.3213 176.275 12.9117C176.756 12.512 177.29 12.1799 177.862 11.9248C178.611 11.607 179.421 11.4535 180.236 11.4748C181.301 11.4713 182.354 11.6945 183.326 12.1293C184.301 12.5736 185.177 13.2083 185.9 13.9958C186.668 14.8453 187.264 15.833 187.657 16.9053C188.094 18.1225 188.311 19.4072 188.295 20.6995L188.29 31.9646Z" fill="white"/>
<path d="M191.385 21.7376C191.377 20.3598 191.643 18.994 192.168 17.7184C192.659 16.5149 193.366 15.4097 194.254 14.456C195.103 13.5563 196.112 12.8196 197.23 12.2827C198.303 11.7601 199.481 11.4873 200.676 11.485C201.524 11.4646 202.367 11.6178 203.153 11.935C203.759 12.1876 204.329 12.5195 204.847 12.9219C205.321 13.3316 205.724 13.8151 206.042 14.3537H206.459V12.3083H212.227V31.4174C212.232 32.6766 211.958 33.9215 211.423 35.0633C210.345 37.3912 208.427 39.2324 206.047 40.2229C204.8 40.7448 203.46 41.0092 202.107 41.0001C200.842 41.0262 199.58 40.8536 198.368 40.4888C197.347 40.1664 196.385 39.6811 195.521 39.0519C194.722 38.4731 194.026 37.7663 193.461 36.9604C192.92 36.1889 192.489 35.3476 192.178 34.4599L197.962 33.6418C198.337 34.2434 198.829 34.7649 199.409 35.1758C200.198 35.7053 201.141 35.9639 202.092 35.9122C202.666 35.9261 203.237 35.822 203.769 35.6064C204.3 35.3908 204.782 35.0684 205.182 34.6594C205.598 34.2271 205.923 33.7158 206.136 33.1562C206.349 32.5965 206.447 32 206.423 31.4021V29.147H206.047C205.744 29.6957 205.339 30.1817 204.852 30.5788C204.347 31.008 203.774 31.3534 203.158 31.6015C202.369 31.9059 201.527 32.0519 200.681 32.031C199.486 32.0288 198.308 31.756 197.235 31.2333C196.117 30.6964 195.108 29.9597 194.259 29.0601C193.373 28.1129 192.666 27.0146 192.173 25.8181C191.637 24.5244 191.369 23.1365 191.385 21.7376ZM206.459 20.0961C206.145 19.4671 205.741 18.8867 205.259 18.3729C204.84 17.909 204.36 17.5031 203.832 17.1661C203.267 16.7995 202.603 16.6106 201.927 16.6241C201.295 16.6097 200.668 16.7264 200.084 16.9668C199.501 17.2072 198.974 17.5659 198.538 18.0201C197.66 19.0675 197.179 20.3874 197.179 21.7504C197.179 23.1134 197.66 24.4333 198.538 25.4807C198.976 25.9302 199.504 26.2841 200.087 26.5201C200.671 26.756 201.297 26.8687 201.927 26.8511C202.602 26.8672 203.267 26.6897 203.843 26.3397C204.374 26.0128 204.854 25.6115 205.269 25.1483C205.758 24.6251 206.163 24.03 206.469 23.3841L206.459 20.0961Z" fill="white"/>
<path d="M226.07 11.4799C227.508 11.472 228.933 11.7502 230.262 12.2981C232.211 13.111 233.874 14.4805 235.04 16.2329C236.205 17.9853 236.82 20.0417 236.807 22.1415L234.747 24.1869H221.733C221.998 25.1552 222.534 26.0293 223.278 26.7079C224.057 27.3702 225.061 27.7138 226.085 27.6692C226.662 27.6784 227.238 27.6165 227.8 27.4851C228.24 27.3723 228.663 27.2002 229.057 26.9738C229.392 26.787 229.693 26.545 229.947 26.2579C230.179 25.9818 230.406 25.6954 230.627 25.3937L236.405 26.217C236.081 27.0801 235.637 27.8941 235.087 28.6357C234.49 29.4477 233.764 30.159 232.94 30.7424C232.027 31.3886 231.017 31.8874 229.947 32.2202C228.697 32.6041 227.394 32.7905 226.085 32.7725C224.701 32.7956 223.329 32.52 222.063 31.9646C220.814 31.4039 219.681 30.6185 218.721 29.6481C217.751 28.669 216.968 27.524 216.408 26.2681C215.835 24.9796 215.538 23.5862 215.538 22.1773C215.538 20.7684 215.835 19.3751 216.408 18.0865C216.963 16.8208 217.747 15.6666 218.721 14.6809C219.684 13.7137 220.817 12.9288 222.063 12.3645C223.318 11.7849 224.685 11.483 226.07 11.4799ZM226.07 16.5934C225.044 16.5481 224.04 16.8939 223.263 17.5598C222.517 18.2375 221.982 19.1119 221.718 20.0808H230.406C230.142 19.1119 229.606 18.2375 228.861 17.5598C228.083 16.9086 227.086 16.5743 226.07 16.6241V16.5934Z" fill="white"/>
<path d="M259.307 31.9646H253.529V20.7149C253.585 19.6296 253.216 18.5648 252.499 17.7439C252.194 17.3917 251.816 17.1085 251.391 16.9136C250.967 16.7186 250.505 16.6164 250.037 16.6138C249.388 16.6012 248.752 16.7967 248.224 17.1712C247.145 17.9166 246.278 18.9258 245.706 20.1012V31.9646H239.902V12.2981H245.701V14.3434H246.113C246.43 13.8049 246.834 13.3213 247.308 12.9117C247.789 12.5109 248.325 12.1787 248.899 11.9248C249.648 11.6057 250.458 11.4521 251.273 11.4748C252.338 11.4705 253.392 11.6937 254.363 12.1293C255.34 12.571 256.216 13.2061 256.938 13.9957C257.707 14.844 258.303 15.832 258.694 16.9053C259.134 18.1218 259.351 19.407 259.333 20.6995L259.307 31.9646Z" fill="white"/>
<path d="M264.678 29.5203C264.964 29.5244 265.243 29.6125 265.478 29.7735C265.714 29.9345 265.896 30.1612 266.002 30.425C266.108 30.6887 266.133 30.9778 266.073 31.2555C266.014 31.5333 265.873 31.7874 265.668 31.9856C265.463 32.1839 265.204 32.3175 264.923 32.3696C264.642 32.4216 264.351 32.3898 264.089 32.2781C263.826 32.1665 263.602 31.9799 263.446 31.7421C263.289 31.5043 263.208 31.2258 263.211 30.9419C263.208 30.7513 263.244 30.5622 263.317 30.386C263.39 30.2098 263.499 30.0504 263.636 29.9173C263.774 29.7842 263.937 29.6804 264.116 29.6121C264.295 29.5439 264.487 29.5126 264.678 29.5203Z" fill="white"/>
<path d="M278.099 12.2981C282.018 12.2981 284.706 14.9622 285.309 17.0127L283.45 17.4218C283.014 16.3711 282.268 15.4761 281.31 14.8545C280.352 14.2329 279.227 13.9139 278.083 13.9395C274.571 13.9395 272.712 15.7855 272.712 17.6315C272.712 22.9597 285.515 19.8865 285.515 27.0608C285.515 30.1289 282.832 32.7981 277.666 32.7981C273.546 32.7981 270.235 29.9294 269.427 27.2653L271.286 26.8562C271.744 28.1613 272.614 29.285 273.766 30.0606C274.918 30.8362 276.291 31.2223 277.682 31.1618C281.606 31.1618 283.671 29.1164 283.671 27.071C283.671 21.7376 270.868 24.8159 270.868 17.6417C270.868 14.7577 273.351 12.2981 278.099 12.2981Z" fill="white"/>
<path d="M306.985 22.5506L306.161 23.3688H290.69C291.102 27.8789 294.409 31.1617 298.328 31.1617C299.855 31.2187 301.357 30.7641 302.593 29.871C303.829 28.9778 304.726 27.6981 305.141 26.2374L307 26.6516C306.176 29.7197 303.081 32.7878 298.328 32.7878C293.373 32.7878 288.831 28.2777 288.831 22.5608C288.831 16.6139 293.168 12.3083 297.916 12.3083C302.664 12.3083 306.985 16.6241 306.985 22.5506ZM290.69 21.7376H305.141C304.935 17.2275 301.634 13.9497 297.931 13.9497C294.228 13.9497 290.896 17.2172 290.69 21.7376Z" fill="white"/>
</svg>
