<svg width="36" height="37" viewBox="0 0 36 37" fill="none" xmlns="http://www.w3.org/2000/svg">
<g clip-path="url(#clip0_301_2133)">
<path d="M14.4023 19.0658C13.5753 19.0658 12.7669 18.8184 12.0793 18.3548C11.3917 17.8912 10.8558 17.2324 10.5393 16.4615C10.2228 15.6906 10.14 14.8424 10.3014 14.024C10.4627 13.2057 10.8609 12.4539 11.4457 11.8639C12.0305 11.2739 12.7755 10.8721 13.5866 10.7094C14.3977 10.5466 15.2384 10.6301 16.0024 10.9494C16.7665 11.2687 17.4195 11.8095 17.8789 12.5032C18.3384 13.197 18.5836 14.0127 18.5836 14.847C18.5824 15.9655 18.1415 17.0379 17.3576 17.8288C16.5737 18.6197 15.5109 19.0646 14.4023 19.0658ZM14.4023 12.5033C13.9429 12.5033 13.4938 12.6408 13.1118 12.8983C12.7297 13.1558 12.432 13.5219 12.2562 13.9501C12.0804 14.3784 12.0344 14.8496 12.124 15.3043C12.2136 15.7589 12.4349 16.1765 12.7597 16.5043C13.0846 16.8321 13.4985 17.0553 13.9491 17.1458C14.3997 17.2362 14.8668 17.1898 15.2913 17.0124C15.7157 16.835 16.0785 16.5346 16.3338 16.1492C16.589 15.7637 16.7253 15.3106 16.7253 14.847C16.7253 14.2254 16.4805 13.6293 16.0449 13.1898C15.6092 12.7502 15.0184 12.5033 14.4023 12.5033ZM21.3712 25.6283C21.3697 24.3856 20.8797 23.1941 20.0088 22.3154C19.1378 21.4366 17.957 20.9423 16.7253 20.9408H12.0794C10.8477 20.9423 9.66681 21.4366 8.79585 22.3154C7.9249 23.1941 7.43495 24.3856 7.43347 25.6283L7.43347 29.3783H9.29183V25.6283C9.29183 24.8824 9.58552 24.167 10.1083 23.6396C10.631 23.1121 11.3401 22.8158 12.0794 22.8158H16.7253C17.4646 22.8158 18.1736 23.1121 18.6963 23.6396C19.2191 24.167 19.5128 24.8824 19.5128 25.6283V29.3783H21.3712V25.6283ZM23.6941 15.3158C22.8671 15.3158 22.0587 15.0684 21.3711 14.6048C20.6835 14.1412 20.1476 13.4824 19.8311 12.7115C19.5146 11.9406 19.4318 11.0924 19.5931 10.274C19.7545 9.45565 20.1527 8.70394 20.7375 8.11394C21.3222 7.52394 22.0673 7.12214 22.8784 6.95936C23.6895 6.79658 24.5302 6.88012 25.2942 7.19943C26.0583 7.51874 26.7113 8.05947 27.1707 8.75324C27.6302 9.44701 27.8754 10.2627 27.8754 11.097C27.8742 12.2155 27.4333 13.2879 26.6494 14.0788C25.8655 14.8697 24.8027 15.3146 23.6941 15.3158ZM23.6941 8.7533C23.2347 8.7533 22.7856 8.89076 22.4035 9.14829C22.0215 9.40583 21.7238 9.77187 21.548 10.2001C21.3722 10.6284 21.3262 11.0996 21.4158 11.5543C21.5054 12.0089 21.7267 12.4265 22.0515 12.7543C22.3764 13.0821 22.7903 13.3053 23.2409 13.3958C23.6915 13.4862 24.1586 13.4398 24.5831 13.2624C25.0075 13.085 25.3703 12.7846 25.6256 12.3992C25.8808 12.0137 26.0171 11.5606 26.0171 11.097C26.0171 10.4754 25.7723 9.8793 25.3367 9.43977C24.901 9.00023 24.3102 8.7533 23.6941 8.7533ZM29.7338 21.8783C29.7323 20.6356 29.2423 19.4441 28.3714 18.5654C27.5004 17.6866 26.3196 17.1923 25.0879 17.1908H21.3712V19.0658H25.0879C25.8272 19.0658 26.5362 19.3621 27.059 19.8896C27.5817 20.417 27.8754 21.1324 27.8754 21.8783V25.6283H29.7338V21.8783Z" fill="#FDA636"/>
</g>
<defs>
<clipPath id="clip0_301_2133">
<rect width="22.3003" height="22.5" fill="white" transform="translate(7.43347 6.8783)"/>
</clipPath>
</defs>
</svg>
