<svg width="32" height="32" viewBox="0 0 32 32" fill="none" xmlns="http://www.w3.org/2000/svg">
    <g clip-path="url(#clip0_58_104)">
        <path d="M18 18H14C9.95002 18 6.66669 21.2833 6.66669 25.3333C6.66669 26.0696 7.26377 26.6667 8.00002 26.6667H24C24.7363 26.6667 25.3334 26.0696 25.3334 25.3333C25.3334 21.2833 22.05 18 18 18ZM8.70794 24.6667C9.0371 22.0375 11.2834 20 14 20H18C20.715 20 22.9625 22.0396 23.2917 24.6667H8.70794ZM16 16C18.9454 16 21.3334 13.6121 21.3334 10.6667C21.3334 7.72126 18.9454 5.33334 16 5.33334C13.0546 5.33334 10.6667 7.72126 10.6667 10.6667C10.6667 13.6125 13.0542 16 16 16ZM16 7.33334C17.8379 7.33334 19.3334 8.82876 19.3334 10.6667C19.3334 12.5046 17.8379 14 16 14C14.1621 14 12.6667 12.5042 12.6667 10.6667C12.6667 8.82876 14.1625 7.33334 16 7.33334Z" fill="" />
    </g>
    <defs>
        <clipPath id="clip0_58_104">
            <rect width="18.6667" height="21.3333" fill="" transform="translate(6.66669 5.33334)" />
        </clipPath>
    </defs>
</svg>